# xmcd CD database file
#
# Track frame offsets:
#	150
#	14012
#	24260
#	35888
#	48228
#	58403
#	71988
#	83528
#	96396
#	109789
#	119976
#	133158
#	145933
#	160788
#	176310
#	188498
#	204688
#	215409
#	227065
#	237006
#	247274
#	255855
#	264036
#	273763
#	282640
#	291698
#
# Disc length: 4049 seconds
#
# Revision: 0
# Processed by: cddbd v1.5.2PL0 Copyright (c) Steve Scherf et al.
# Submitted via: CDex 1.51
#
DISCID=8f0fcf1a
DTITLE=Johnny Cash - The Legend Of Johnny Cash
DYEAR=2006
DGENRE=Country
TTITLE0=It Ain't Me, Babe
TTITLE1=There You Go
TTITLE2=Long Legged Guitar Pickin' Man
TTITLE3=Oh, What A Good Thing We Had
TTITLE4=Darlin' Companion
TTITLE5=If I Were A Carpenter
TTITLE6=Cause I Love You
TTITLE7=No Need To Worry
TTITLE8=Help Me Make It Through The Night
TTITLE9=The Loving Gift
TTITLE10=The Pine Tree
TTITLE11=Old Time Feeling
TTITLE12=One Way Rider
TTITLE13=Brand New Dance
TTITLE14=Far Side Banks Of Jordan
TTITLE15=It Takes One To Know Me
TTITLE16=Train Of Love
TTITLE17=So Doggone Lonesome
TTITLE18=Ballad Of A Teenage Queen
TTITLE19=Ways Of A Woman In Love
TTITLE20=I Forgot To Remember To Forget
TTITLE21=Sugartime
TTITLE22=It's Just About Time
TTITLE23=Katy Too
TTITLE24=Life Goes On
TTITLE25=You're The Nearest Thing To Heaven
EXTD=YEAR: 2006
EXTT0=
EXTT1=
EXTT2=
EXTT3=
EXTT4=
EXTT5=
EXTT6=
EXTT7=
EXTT8=
EXTT9=
EXTT10=
EXTT11=
EXTT12=
EXTT13=
EXTT14=
EXTT15=
EXTT16=
EXTT17=
EXTT18=
EXTT19=
EXTT20=
EXTT21=
EXTT22=
EXTT23=
EXTT24=
EXTT25=
PLAYORDER=
